<svg height="916.487" viewBox="0 0 1922.044 916.487" width="1922.044" xmlns="http://www.w3.org/2000/svg" xmlns:xlink="http://www.w3.org/1999/xlink"><linearGradient id="a" gradientUnits="objectBoundingBox" x1=".08" x2=".942" y1=".196" y2=".763"><stop offset="0" stop-color="#6240c8"/><stop offset="1" stop-color="#a145fe"/></linearGradient><clipPath id="b"><path d="m4710 12099.888s171.96 168.747 225.359 208.8c8.537 5.836 20.109 4.4 23.038 4.4h1673.647v-916.33h-1922.044z" transform="translate(-4710 -11396.755)"/></clipPath><linearGradient id="c" x1=".5" x2="1.187" xlink:href="#a" y1="0" y2=".734"/><linearGradient id="d" x1="5.366" x2=".97" xlink:href="#a" y1=".586" y2="-.092"/><linearGradient id="e" x1=".5" x2=".5" xlink:href="#a" y1="0" y2="1"/><g transform="translate(0 .001)"><path d="m4710 12099.859s171.96 168.741 225.359 208.792c8.537 5.835 20.109 4.4 23.038 4.4h1673.647v-916.3h-1922.044z" fill="url(#a)" transform="translate(-4710 -11396.755)"/><g clip-path="url(#b)"><circle cx="486.5" cy="486.5" fill="#fff" opacity=".04" r="486.5" transform="translate(1311 -27)"/><circle cx="416.5" cy="416.5" fill="#fff" opacity=".04" r="416.5" transform="translate(1381 43)"/><circle cx="335.5" cy="335.5" fill="#fff" opacity=".04" r="335.5" transform="translate(1462 124)"/><path d="m0 0h181v691h-181z" fill="url(#c)" opacity=".31" transform="matrix(.695 -.719 .719 .695 -179.491 566.893)"/><g fill="url(#d)"><rect height="691" opacity=".37" rx="21.5" transform="matrix(.695 -.719 .719 .695 325.509 681.893)" width="43"/><rect height="305" opacity=".37" rx="21.5" transform="matrix(.695 -.719 .719 .695 289.509 191.893)" width="43"/><rect height="305" opacity=".37" rx="21.5" transform="matrix(.695 -.719 .719 .695 514.509 479.893)" width="43"/><rect height="305" opacity=".37" rx="21.5" transform="matrix(.695 -.719 .719 .695 -82.491 178.893)" width="43"/><rect height="262" opacity=".37" rx="21.5" transform="matrix(.695 -.719 .719 .695 933.509 800.893)" width="43"/></g><circle cx="109.5" cy="109.5" fill="url(#e)" opacity=".28" r="109.5" transform="translate(-95 -109)"/><circle cx="109.5" cy="109.5" fill="url(#e)" opacity=".28" r="109.5" transform="translate(47 -164)"/></g></g></svg>