<svg height="776.336" viewBox="0 0 868.611 776.336" width="868.611" xmlns="http://www.w3.org/2000/svg" xmlns:xlink="http://www.w3.org/1999/xlink"><linearGradient id="a" gradientUnits="objectBoundingBox" x1="1.153" x2="1.438" y1="2.57" y2="5.178"><stop offset="0" stop-color="#6240c8"/><stop offset="1" stop-color="#a145fe"/></linearGradient><linearGradient id="b" x1="1.638" x2="1.896" xlink:href="#a" y1="2.768" y2="5.437"/><linearGradient id="c" x1="2.305" x2="2.474" xlink:href="#a" y1="3.738" y2="5.391"/><linearGradient id="d" gradientUnits="objectBoundingBox" x1="-8.637" x2="-8.204" y1="-1.261" y2="-.646"><stop offset="0" stop-color="#b548f2"/><stop offset="1" stop-color="#d283fd"/></linearGradient><linearGradient id="e" x1="-8.943" x2="-8.481" xlink:href="#d" y1="-1.814" y2="-1.222"/><linearGradient id="f" x1="2.395" x2="2.11" xlink:href="#d" y1="-4.202" y2="-1.594"/><linearGradient id="g" x1="3.252" x2="2.994" xlink:href="#d" y1="-7.571" y2="-4.903"/><linearGradient id="h" x1="4.227" x2="4.058" xlink:href="#d" y1="-10.967" y2="-9.314"/><linearGradient id="i" x1="0" x2=".682" xlink:href="#a" y1="-.345" y2=".664"/><linearGradient id="j" gradientUnits="objectBoundingBox" x1="-.711" x2=".781" y1="-.24" y2=".881"><stop offset="0" stop-color="#6240c8"/><stop offset="1" stop-color="#c145fe"/></linearGradient><linearGradient id="k" x1=".565" x2="1.581" xlink:href="#a" y1=".261" y2=".261"/><linearGradient id="l" x1=".257" x2="1.21" xlink:href="#a" y1=".688" y2=".688"/><linearGradient id="m" x1="0" x2="1" xlink:href="#a" y1=".5" y2=".5"/><linearGradient id="n" x1=".5" x2=".5" xlink:href="#a" y1="0" y2="1"/><linearGradient id="o" x1=".482" x2=".226" xlink:href="#a" y1=".518" y2="2.992"/><linearGradient id="p" x1=".563" x2=".332" xlink:href="#a" y1="-.347" y2="2.185"/><linearGradient id="q" x1=".601" x2=".45" xlink:href="#a" y1="-.707" y2=".861"/><path d="m243.711 429.477c4.817 1.95 12.43-.164 17.557-1.024a103.32 103.32 0 0 0 34.846-12.622 133.927 133.927 0 0 0 -20.2-1.7 102.8 102.8 0 0 0 21.663-16.986q-13.494 3.976-26.985 7.955a46.7 46.7 0 0 0 13.917-22.043 183.786 183.786 0 0 0 -18.058 10.4 52.039 52.039 0 0 0 4.179-20.42 200.436 200.436 0 0 0 -16.045 16.411q-1.426-8.9-2.849-17.8a33.2 33.2 0 0 0 -9.111 17.08 32.237 32.237 0 0 1 -5.59-13.778 65.209 65.209 0 0 0 6.673 54.528" fill="url(#a)" transform="translate(512.545 341.621)"/><path d="m245.8 415.342c3.152 1.278 8.139-.108 11.5-.672a67.691 67.691 0 0 0 22.826-8.268 87.7 87.7 0 0 0 -13.231-1.111 67.3 67.3 0 0 0 14.189-11.128q-8.839 2.607-17.675 5.21a30.509 30.509 0 0 0 9.115-14.437 121.072 121.072 0 0 0 -11.828 6.809 34.02 34.02 0 0 0 2.737-13.374 131.878 131.878 0 0 0 -10.508 10.748l-1.863-11.654a21.709 21.709 0 0 0 -5.97 11.183 21.107 21.107 0 0 1 -3.664-9.024 42.717 42.717 0 0 0 4.374 35.717" fill="url(#b)" transform="translate(509.927 356.066)"/><path d="m246.924 407.465c2.215.9 5.722-.073 8.084-.47a47.594 47.594 0 0 0 16.049-5.813 61.182 61.182 0 0 0 -9.3-.784 47.3 47.3 0 0 0 9.978-7.826q-6.212 1.834-12.427 3.664a21.506 21.506 0 0 0 6.408-10.153 84.915 84.915 0 0 0 -8.317 4.789 23.97 23.97 0 0 0 1.926-9.4 92.262 92.262 0 0 0 -7.391 7.558q-.658-4.1-1.313-8.2a15.309 15.309 0 0 0 -4.2 7.864 14.831 14.831 0 0 1 -2.574-6.346 30.032 30.032 0 0 0 3.075 25.115" fill="url(#c)" transform="translate(508.706 364.421)"/><path d="m202.469 504.605c22.7-52.12 63.882-103.217 111.7-133.953 9.815-6.307 20.214-12.2 27.668-21.172 1.731-2.079 3.343-4.479 3.441-7.182.268-7.248-9.4-10.152-16.624-9.491-34.079 3.124-59.786 31.763-78.893 60.159-14.13 21-22.349 33.891-33.209 56.756-7.352 15.488-14.085 54.882-14.085 54.882" fill="url(#d)" transform="translate(449.602 240.962)"/><path d="m209.515 492.873c19.876-53.263 58.264-106.491 104.369-139.745 9.459-6.823 19.532-13.263 26.494-22.621 1.613-2.17 3.1-4.653 3.051-7.359-.122-7.248-9.933-9.633-17.108-8.585-33.867 4.946-58 34.919-75.556 64.3-12.987 21.726-20.507 35.037-30.123 58.452-6.513 15.861-11.128 55.558-11.128 55.558" fill="url(#e)" transform="translate(467.095 195.307)"/><path d="m102.556 436.637c-5.834 2.365-15.06-.2-21.27-1.24a125.2 125.2 0 0 1 -42.222-15.297 162.3 162.3 0 0 1 24.474-2.058 124.537 124.537 0 0 1 -26.25-20.584q16.347 4.822 32.7 9.637a56.535 56.535 0 0 1 -16.864-26.706 223.08 223.08 0 0 1 21.876 12.601 62.929 62.929 0 0 1 -5.064-24.742 243.648 243.648 0 0 1 19.444 19.887q1.724-10.783 3.448-21.562a40.227 40.227 0 0 1 11.041 20.691 39.057 39.057 0 0 0 6.774-16.7 79 79 0 0 1 -8.087 66.069" fill="url(#f)" transform="translate(39.488 325.021)"/><path d="m86.686 419.514c-3.824 1.546-9.867-.129-13.931-.815a82.006 82.006 0 0 1 -27.655-10.013 106.129 106.129 0 0 1 16.031-1.351 81.558 81.558 0 0 1 -17.191-13.479l21.412 6.311a37.051 37.051 0 0 1 -11.044-17.494 145.5 145.5 0 0 1 14.332 8.254 41.282 41.282 0 0 1 -3.316-16.209 159.942 159.942 0 0 1 12.733 13.026q1.128-7.063 2.257-14.123a26.321 26.321 0 0 1 7.23 13.555 25.557 25.557 0 0 0 4.441-10.936 51.757 51.757 0 0 1 -5.3 43.274" fill="url(#g)" transform="translate(55.999 342.52)"/><path d="m77.676 409.967c-2.689 1.09-6.938-.091-9.8-.571a57.668 57.668 0 0 1 -19.448-7.042 74.1 74.1 0 0 1 11.274-.947 57.4 57.4 0 0 1 -12.089-9.48q7.528 2.22 15.06 4.437a26.012 26.012 0 0 1 -7.767-12.3 102.876 102.876 0 0 1 10.076 5.8 28.988 28.988 0 0 1 -2.33-11.4 112.264 112.264 0 0 1 8.954 9.16q.794-4.963 1.588-9.929a18.564 18.564 0 0 1 5.085 9.529 17.986 17.986 0 0 0 3.117-7.69 36.379 36.379 0 0 1 -3.723 30.429" fill="url(#h)" transform="translate(65.131 352.645)"/><path d="m258.488 615.825c-29.858-106.685-95.655-216.345-179.727-288.492-17.25-14.8-35.751-28.96-47.732-48.275-2.779-4.479-5.252-9.543-4.719-14.788 1.428-14.06 20.866-17.076 34.63-13.865 64.951 15.161 106.891 77.329 136.164 137.261 21.653 44.323 34.065 71.4 48.9 118.451 10.048 31.868 12.489 109.709 12.489 109.709" fill="url(#i)" transform="translate(12.05 33.692)"/><path d="m208.037 514.786c-28.716-65.923-80.8-130.55-141.287-169.432-12.409-7.976-25.567-15.429-35-26.776-2.187-2.63-4.225-5.667-4.35-9.083-.338-9.167 11.89-12.841 21.022-12.005 43.11 3.949 75.622 40.178 99.786 76.092 17.874 26.563 28.274 42.867 42.006 71.788 9.3 19.591 17.818 69.416 17.818 69.416" fill="url(#i)" transform="translate(14.93 153.212)"/><path d="m231.764 501.887c-40.69-59.287-104.084-112.867-170.843-139.577-13.694-5.478-28.026-10.3-39.432-19.657-2.647-2.17-5.224-4.761-6-8.094-2.069-8.937 9.24-14.865 18.368-15.774 43.075-4.291 81.864 25.115 112.4 55.8 22.583 22.694 35.883 36.73 54.851 62.523 12.845 17.473 30.652 64.78 30.652 64.78" fill="url(#i)" transform="translate(-15.244 205.333)"/><path d="m80.842 817.057c-11.842-2.933-12.361-10.923-11.88-23.109s10.338-23.348 22.366-25.338c-15.056-13.935-20-37.694-11.751-56.477s29.082-31.223 49.523-29.573c-46.527-35.5-53.886-103.154-44.611-160.937 7.53-46.914 32.435-100.333 79.61-105.892-12.987 1.532-17.021-73.954-16.853-83.459.759-43.145 24.174-127.419 82.679-113.216 40.989 9.947 53.688 75.929 59.379 110.37-4.782-8.007 4.239-18.671 13.566-18.595s17.135 7.035 22.858 14.4a96.271 96.271 0 0 1 19.58 67.556c19.392-25.776 63.391-16.522 83.149 8.975s41.143 60.681 44.943 92.712c6.025 50.685-2.177 99.9 12.329 148.838-6.649-7.464 2.187-20.319 12.179-20.57s18.407 7.237 24.8 14.917a140.316 140.316 0 0 1 32.018 81.282c50.031-1.432 94.889 48.9 87.725 98.438l-561.614-.324" fill="url(#j)" transform="translate(117.843 -45.191)"/><path d="m258.792 345.975c1.066-7-4.078-11.479-11.1-12.549-8.157-1.243-16.641 3.469-22.074 12.347l-30.718-25.243c12.981-20.2 34.417-32.188 64.777-27.563 29.792 4.538 49.724 22.826 45.423 51.055-5.263 34.549-36.552 36.023-39.2 53.412l-39.095-5.956c4.17-27.326 29.887-31.725 31.987-45.503zm-42.922 80.342c2.306-15.129 14.311-25.083 29.109-22.83s23.3 15.335 20.991 30.464c-2.271 14.906-14.377 25.54-29.182 23.283s-23.188-16.011-20.918-30.917z" fill="url(#k)" transform="translate(534.817 -36.188)"/><path d="m154.782 215.4c-1.682-4.744-6.4-5.823-11.162-4.138-5.524 1.957-9.257 7.753-9.682 15.136l-27.7-5.506c1.351-17.01 10.758-31.7 31.324-38.99 20.179-7.15 38.8-2.382 45.573 16.738 8.289 23.4-10.811 34.821-6.638 46.6l-26.48 9.379c-6.561-18.505 8.07-29.887 4.765-39.219zm.066 64.711c-3.629-10.25.547-20.51 10.57-24.063s19.734 1.79 23.366 12.04c3.577 10.1-.439 20.817-10.466 24.369s-19.893-2.248-23.47-12.345z" fill="url(#l)" transform="translate(210.67 -141.311)"/><path d="m51.524 295.6c-2.525-2.553-5.9-1.818-8.463.711-2.978 2.939-3.633 7.815-1.668 12.716l-19.566 4.838c-4.28-11.4-2.657-23.742 8.418-34.682 10.87-10.734 24.338-13.3 34.511-3 12.451 12.6 3.573 25.77 9.839 32.112l-14.263 14.089c-9.846-9.968-3.845-21.757-8.808-26.784zm19.657 41.783c-5.451-5.52-5.862-13.416-.463-18.748s13.29-4.827 18.741.693c5.37 5.44 6.029 13.579.627 18.915s-13.531 4.578-18.905-.859z" fill="url(#i)" transform="translate(-4.318 84.402)"/><path d="m419.813 217.358c-5.991-37.5-72.578-38.718-97.028-38.308-17.672-.832-38.408-.073-55.85 3.946-14.826 3.417-29.391 11.274-38.9 24.888s-12.949 33.585-6 49.129a41.516 41.516 0 0 0 15.355 17.777c-6.433 16.7-19.187 31.025-35.424 38.635a142.5 142.5 0 0 0 70.384-27.316c35.33 4.448 71.464-.519 105.1-13.8 10.978-4.333 21.956-9.721 30.415-18.9s14.055-22.847 11.948-36.051z" fill="url(#m)" transform="translate(448.353 -141.311)"/><path d="m218.591 190.88h117.984" fill="url(#n)" stroke="#fff" stroke-miterlimit="10" stroke-width=".758" transform="translate(489.63 -111.193)"/><path d="m217.58 196.947h128.551" fill="url(#n)" stroke="#fff" stroke-miterlimit="10" stroke-width=".758" transform="translate(487.12 -96.13)"/><path d="m111.835 484.786c-10.821-4.079-20.082-19.023-27.162-28.169a229.957 229.957 0 0 1 -37.942-73.226 297.457 297.457 0 0 1 35.594 27.7 228.724 228.724 0 0 1 -9.79-60.472q16.065 26.865 32.126 53.731a103.811 103.811 0 0 1 10.507-57.05 409.541 409.541 0 0 1 13.841 44.256 115.7 115.7 0 0 1 23.979-39.7 446.009 446.009 0 0 1 1.473 51.055q15.757-12.411 31.513-24.811a73.862 73.862 0 0 1 -10.874 41.683 71.7 71.7 0 0 0 29.938-14.095c-17.369 38.353-52.535 68.2-93.2 79.1" fill="url(#o)" transform="translate(62.933 278.174)"/><path d="m95.938 451.347c-7.088-2.671-13.155-12.461-17.79-18.448a150.622 150.622 0 0 1 -24.853-47.965 195.059 195.059 0 0 1 23.314 18.146 149.785 149.785 0 0 1 -6.409-39.608l21.043 35.19a68.022 68.022 0 0 1 6.875-37.362 267.293 267.293 0 0 1 9.066 28.987 75.778 75.778 0 0 1 15.711-26 293.56 293.56 0 0 1 .965 33.438l20.64-16.254a48.362 48.362 0 0 1 -7.119 27.3 46.9 46.9 0 0 0 19.608-9.233 95.038 95.038 0 0 1 -61.047 51.81" fill="url(#p)" transform="translate(79.228 312.916)"/><path d="m86.755 432.563c-4.984-1.881-9.25-8.763-12.51-12.973a105.959 105.959 0 0 1 -17.477-33.728 137.214 137.214 0 0 1 16.4 12.758 105.208 105.208 0 0 1 -4.51-27.852q7.4 12.376 14.8 24.749a47.816 47.816 0 0 1 4.841-26.278 188.969 188.969 0 0 1 6.374 20.385 53.272 53.272 0 0 1 11.044-18.285 205.324 205.324 0 0 1 .679 23.513q7.256-5.71 14.513-11.427a33.991 33.991 0 0 1 -5.008 19.2 32.988 32.988 0 0 0 13.788-6.492 66.823 66.823 0 0 1 -42.926 36.434" fill="url(#q)" transform="translate(87.853 332.637)"/><path d="m221.569 271.6s-1.863 3.786-1.052 4.329 7.471-2.818 8.6-2.7c1.275 1.01.912 2.894-.017 3.918l-17.222 5.217z" fill="#ffa96e" transform="translate(472.957 89.211)"/><path d="m206.852 281.659a1.753 1.753 0 0 0 .592.254c2.5.55 18.94 4.155 20.427 3.859 1.606-.313 12.2-6.736 12.2-6.736l7-8.665s-3.072-.8-4.918 1.316c-1.727-.15-4.949-.2-7.077 4.221-3.653 3-11.35.9-11.35.9s-7.328-1.954-10.473-1l-6.374 1.933a2.019 2.019 0 0 0 -1.111.846 1.952 1.952 0 0 0 .495 2.685z" fill="#ffa96e" transform="translate(456.963 85.797)"/><path d="m289.573 210.42a34.779 34.779 0 0 1 5.217 30.785c-6.091 20.068-6.318 57.205-3.006 71.1 4.7 19.7 32.3 36.458 30.851 63.7s-26.5 30.36-39.272 27.727-15.725-17.487-35.626-12.127c-15.885 4.277-31.276 10.062-47.589 12.74-19.037 3.128-53.378-2.94-51.7-29.249.54-8.491 8.554-14.123 12.751-20.949 5.552-9.038 7.993-19.615 10.267-29.823 5.35-24 4.827-49.108 7.767-73.477 1.787-14.826 2.226-42.818 14.52-53.778 13.431-11.969 65.419-27.819 95.82 13.351z" fill="#4d128c" transform="translate(315.326 -128.758)"/><path d="m174.413 255.123c9.546 14.927 24.289 11.95 21.959-3.3l.495-30.666-22.506-3.072-1.988 29.115a13.064 13.064 0 0 0 2.04 7.923z" fill="#ffa96e" transform="translate(374.802 -43.652)"/><path d="m195.438 241.766-22.6-19.734.383-4.239 24.174 2.17-1.957 21.8z" fill="#ffa96e" fill-rule="evenodd" opacity=".57" transform="translate(376.033 -44.37)"/><path d="m202.44 394.183c-.1-1.964-.247-4.27-.428-6.067-.39-3.841-.373-7.815-.373-7.815l-8.449-.749s-6.844 10.107-11.347 13.879-12.949 6.45-12.949 6.45-14.732 5.475-17.351 8 2.257 2.595 5.21 3.3 19.713 1.835 24.554 1.289 8.414-4.848 11.065-4.7 7.579.644 9.442-.408c2.494-1.407.627-13.172.627-13.172z" fill="#ff407a" transform="translate(321.303 357.246)"/><path d="m246.84 416.979c-2.03-3.013-15.286-11.458-15.286-11.458s-7.694-4.392-11.309-9.024-8.181-15.948-8.181-15.948l-8.418-1.041s-.815 3.887-2 7.561c-.557 1.72-1.181 3.946-1.693 5.841s-4.291 11.114-2.145 13.015c1.6 1.417 6.523 1.964 9.146 2.379s5.214 5.364 9.832 6.917 21.238 3.963 24.275 3.894 7.813.876 5.779-2.136z" fill="#ff407a" transform="translate(436.523 357.134)"/><path d="m194.83 233.5c12.221 15.505 56.192 74.529 51.337 114.738a5.975 5.975 0 0 1 -10.288 3.249c-22.363-23.506-64.777-105.8-50.128-119.036a6.325 6.325 0 0 1 9.079 1.049z" fill="#ff407a" transform="translate(400.62 -11.646)"/><path d="m189.353 579.515c.839 21.6-3.577 44.141-4.806 59.626-3.448.028-6.9.066-10.351.091-21.91-126.611-17.654-136.453-13.534-174.252 2.56-23.513-6.151-76.674 2.414-135.861 4.235-29.263 17.588-47.885 23.283-52.545l69.785 7.854c12.916 82.332 23.309 162.723 24.814 206.272 1.111 32.108 21.416 109.423 32.018 151.255-3.476.324-8.871.387-12.35.679-14.367-29.465-31.23-58.943-37.621-87.906-8.2-37.113-8.2-37.113-18.926-80.9-3.148-13.607-22.262-94.555-26.752-123.619-3.462 19.031-30.935 153.374-27.974 229.306z" fill="#313450" transform="translate(337.542 101.568)"/><g fill="#ff407a"><path d="m188.266 352.317c-1.034 10.337-16.756 47.586-26.9 66.32a7.861 7.861 0 0 0 5.1 11.427c25.428 5.89 58.522 10.543 84.124 9.247a7.866 7.866 0 0 0 7.3-9.243c-6.1-35.688-5.973-81.878-5.8-97.428a7.976 7.976 0 0 1 2.891-5.983c7.352-6.241 14.067-18.452 14.715-21.559 4.371-11.807-16.564-29.4-17.916-61.8-.108-2.553-2.149-4.625-4.479-5.673l-15.701-7.067a7.855 7.855 0 0 0 -2.678-.672l-26.48-1.856a7.877 7.877 0 0 0 -3.514.561l-21.89 8.9c-2.95 1.2-8.314 3.009-8.327 6.192-.031 8.212 5.663 24.143 8.226 31.652 3.57 10.433 12.932 60.982 11.329 76.982z" transform="translate(345.148 -19.004)"/><path d="m203.756 237.214-.637-9.6-9.31 10.208-22.709-12.722 2 13.984 19.637 8.867z" transform="translate(371.715 -26.235)"/><path d="m203.756 237.214-.637-9.6-9.31 10.208-22.709-12.722 2 13.984 19.637 8.867z" transform="translate(371.715 -26.235)"/><path d="m203.756 237.214-.637-9.6-9.31 10.208-22.709-12.722 2 13.984 19.637 8.867z" transform="translate(371.715 -26.235)"/><path d="m176.65 225.1-7.787 12.946 16.187 9.987 9.79-12.742z" transform="translate(366.164 -26.235)"/><path d="m178.543 232.5 7.5 14.905 5.233-11.349-6.638-10.236z" transform="translate(390.198 -24.441)"/><path d="m176.65 225.1-7.787 12.946 16.187 9.987 9.79-12.742z" transform="translate(366.164 -26.235)"/><path d="m178.543 232.5 7.5 14.905 5.233-11.349-6.638-10.236z" transform="translate(390.198 -24.441)"/><path d="m162.388 333c17.891-16.519 56.568-50.463 61.844-58.424 5.141-7.749 13.876-27.936 11.591-41.268-.679-3.97-6.586-2.776-8.449-1.484-14.893 10.33-70.729 61.413-88.028 100.591-3.989 23.625 12.224 19.331 23.042.585z" transform="translate(291.343 -12.602)"/></g><path d="m251.507 255.755c-5.774-13.687-.9-26.713-.9-26.713-.07-10.985-5.781-23.533-14.356-31.708a35.376 35.376 0 0 0 -24.885-10.4c-18.873-.146-46.353 11.709-46.238 29.677l9.438 52.514c4.636 19.685 18.933 31.279 36.831 32.251 2.347.679 11.507.69 14.245.449 22.118-1.957 28.571-39.655 25.865-46.07z" fill="#ffa96e" transform="translate(356.903 -121)"/><path d="m183.412 255.893s-21.935 6.767-18.543 27.1c0 0-7.606-76.27 8.293-92.939s10.25 65.839 10.25 65.839z" fill="#4d128c" transform="translate(351.733 -118.764)"/><path d="m176.937 243.371c-14.172-1.149 4.155-23.015-9.059-28.775-2.093-.916-2.065-4.848-4.409-6.123 7.666-19.18 31.582-25.083 49.446-25.094 18.992-.014 54.165 21.329 47.067 49.923-10.338 8.798-71.625 10.992-83.045 10.069z" fill="#4d128c" transform="translate(352.772 -129.816)"/><path d="m179.524 214.365c2.431 5.259 1.477 10.643-2.128 12.019s-8.491-1.766-10.919-7.025-1.477-10.643 2.128-12.023 8.495 1.764 10.919 7.029z" fill="#ffa96e" transform="translate(356.903 -71.14)"/><path d="m172.954 210.477a4.163 4.163 0 0 0 -2.689-2.661c-1.487-.449-3.741.1-4.117 4.357s2.313 8.206 4.625 7.9c.731-.1 1.219-1.094 1.543-2.414a3.2 3.2 0 0 1 -1.609-3.887 3.515 3.515 0 0 1 2.246-2.532c.005-.474.001-.763.001-.763z" fill="#ffa96e" fill-rule="evenodd" opacity=".68" transform="translate(359.338 -69.464)"/><path d="m170.747 220.7c6.269 0 6.28-9.742 0-9.742s-6.279 9.742 0 9.742z" fill="#ff407a" transform="translate(359.157 -61.352)"/><path d="m161.061 276.113v-5.772h178.564v6.253z" fill="#837bec" transform="translate(346.793 86.095)"/><path d="m291.4 338.352-99.3 1.714c-6 .1-10.717-5.231-10.522-11.887l2.069-71.5c.185-6.384 5.085-11.5 10.926-11.455l96.815.85c5.517.045 9.992 5.081 10.009 11.264l.2 69.165c.022 6.441-4.537 11.752-10.197 11.849z" fill="#837bec" transform="translate(397.717 23.736)"/><path d="m288 336-94.8 1.633c-5.747.1-10.274-5.019-10.1-11.406l1.9-69.043c.171-6.137 4.862-11.061 10.466-11.016l92.5.724c5.308.042 9.609 4.886 9.626 10.835l.2 66.884c.021 6.189-4.36 11.296-9.792 11.389z" fill="#e9dfec" transform="translate(401.499 26.08)"/><path d="m221.608 268.341a11.946 11.946 0 1 1 -11.946-11.941 11.945 11.945 0 0 1 11.946 11.941z" fill="#f2f2f2" transform="translate(437.801 51.469)"/><path d="m145.614 261.988a10.531 10.531 0 0 1 11.629-2.825c5.409 2.065 14.844 5.869 29.816 12.486 19.615 8.676 52.709 17.724 52.709 17.724l-1.076 4.381s-62.314 4.078-95.9-14.579a6.952 6.952 0 0 1 -2.654-9.337 40.945 40.945 0 0 1 5.476-7.85z" fill="#ff407a" transform="translate(292.775 56.611)"/><path d="m183.511 276.585s-1.982-3.629-1.118-4.151 7.955 2.7 9.156 2.591c1.355-.968.968-2.776-.021-3.758l-18.337-5z" fill="#ffa96e" transform="translate(376.909 75.974)"/><path d="m167.842 270.219a1.994 1.994 0 0 1 .634-.24c2.664-.529 20.162-3.984 21.74-3.7 1.714.3 12.987 6.461 12.987 6.461l7.446 8.306s-3.267.773-5.231-1.261a7.1 7.1 0 0 1 -7.533-4.05c-3.89-2.87-12.085-.86-12.085-.86s-7.8 1.874-11.149.961l-6.784-1.853a2.144 2.144 0 0 1 -1.184-.811 1.757 1.757 0 0 1 .529-2.574z" fill="#ffa96e" transform="translate(359.885 75.963)"/><path d="m166.082 275.574 9.456.314s-3.95-7.147 2.877-8.38-10.118-.839-10.118-.839-3.849.379-2.215 8.905z" fill="#ff407a" transform="translate(358.256 76.828)"/><path d="m226.014 276.9-28.3-3.741 37.036-1.027s-9.443.617-8.736 4.768z" fill="#ff407a" transform="translate(437.801 90.551)"/><path d="m133.539 286.769c.878-4.005 1.268-.421 1.268-.421-4.576-1.811-20.43-9.909-28.657-13.458-27.963-12.068-44.475-26.02-54.35-23.781-2 .456-4.573 7.847-5.256 9.609-.78 2.02 1.257 7.829 2.863 9.567 6.5 7.028 24.714 25.926 79.833 28.677z" fill="#19a2be" transform="translate(62.045 32.788)"/><path d="m152.914 246.536s-4.8-4.82-6.335-9.923-2.455-11.242-3.681-16.063-3.577-12.221-3.678-14.112 1.738-3.044 4.19-1.532 4.19 7.805 4.7 9.978 1.839 6.422 3.577 5.478 5.109-11.434 6.335-15.07 4.531-13.026 7.666-19.023c2.166-4.141 4.193-6.725 6.032-5.684s1.125 4.817 0 7.464-7.46 17.856-6.847 18.992 10.323-23.526 12.058-26.079 6.746-2.455 5.008 4.253-8.892 25.132-8.279 25.794 8.62-21.189 9.95-23.648 4.291-1.7 4.19 2.835-8.16 22.823-7.753 24.522 2.417-2.73 4.242-7.053c2.044-4.838 4.312-10.1 6.2-9.811 1.637.254 1.463 4.994-1.5 11.514s-5.928 18.459-7.154 21.956a95.194 95.194 0 0 1 -7.666 14.454c-.077.495-.143.961-.2 1.4a5.68 5.68 0 0 1 -5.782 4.744h-9.449a5.62 5.62 0 0 1 -5.824-5.386z" fill="#ffa96e" transform="translate(292.555 -139.651)"/><path d="m66.807 245.669c-.536-9.226 6.837-14.8 15.394-18.288 12.479-5.085 18.288-3.04 26.731-7.415 16.136-8.359 62.151.648 83.34 19.539 5.67 14.792 3.152 45.008 4.2 75.163 1.083 31.171-6.168 112.885-6.168 112.885-32.286 15.328-101.736 6.036-105.223-4.723-6.496-20.037-15.251-124.838-18.274-177.161z" fill="#300254" transform="translate(112.708 -46.751)"/><path d="m103.128 407.666h-37.528s-2.407-12.022 6.133-27.656l27.573.46a76.833 76.833 0 0 1 3.822 27.196z" fill="#505478" transform="translate(109.007 358.383)"/><path d="m93.692 382.882s-5.635 17.426-3.27 29.615h76.235s.045-10.067-30.541-17.867l-21.263-15.417z" fill="#505478" transform="translate(169.968 356.401)"/><path d="m132.305 332.677-1.79 167.962s-14.189 5.813-33.93-2.389l-8.428-155.692c15.105 2.413 31.634-2.086 44.148-9.881z" fill="#505478" transform="translate(165.786 240.863)"/><path d="m70.048 470.312 6.419-185.612 103.067-10.769-2.267 204.595c-12.514 7.795-29.043 12.294-44.148 9.881l-3.354-143.29-5.83-.293-12.335 139.889c-14.261 5.294-32.427-1.933-41.552-14.401z" fill="#505478" transform="translate(120.825 95.013)"/><path d="m78.567 330.318c9.125 12.726 27.291 20.1 41.557 14.7l-21.542 162.682s-9.71 7.241-31.965-1.123z" fill="#505478" transform="translate(112.306 231.361)"/><path d="m249.621 264.4a13.309 13.309 0 0 1 -12.671 17.675c-59.577-.3-126.444-31.154-132.9-47.035a9.673 9.673 0 0 1 -.463-1.449c-.63-2.765-16.885-16.2-3.385-13.889 11.114 1.9 49.4 9.024 63.589 12.827 21.618 5.8 59.4 15.2 76.138 21.694 3.953 1.536 8.293 6.172 9.689 10.177z" fill="#300254" transform="translate(182.43 -40.289)"/><path d="m186.8 205.038c.644 23.161-17.724 87.3-19.887 98.675-1.529 8.042-4.521 18.619-10.441 25.163-18.173 20.078-25.738-3.845-23.746-12.037 3.465-14.252 34.637-119.645 35.925-119.276-.002.001 18.12 6.468 18.149 7.475z" fill="#300254" transform="translate(275.668 -94.601)"/><path d="m58.771 344.145c-8.408.021-14.154-8.8-11.253-17.212 18.8-54.461 66.146-105.9 81.808-106.766a7.931 7.931 0 0 1 1.39.038 5.558 5.558 0 0 1 4.963 4.569c2.5 10.563-15.1 39.109-22.792 50.894-11.713 17.954-31.551 49.567-42.351 62.83a17.368 17.368 0 0 1 -11.765 5.646z" fill="#300254" transform="translate(62.999 -38.513)"/><path d="m349.758 205.038c-.028-1.01-18.149-7.474-18.149-7.474-1.094-.313-23.739 75.64-32.662 107.274-18.947-6.025-47.648-13.228-65.432-18-14.185-3.8-52.476-10.926-63.589-12.827-.056-.007-.091-.007-.143-.014-22.175-9.188-49.24-12.2-60.852-6.185-8.442 4.374-14.252 2.33-26.731 7.415-8.557 3.486-15.93 9.062-15.394 18.288 3.023 52.322 11.779 157.124 18.274 177.16 3.486 10.758 72.937 20.051 105.223 4.723 0 0 7.251-81.714 6.168-112.885-.69-19.838.153-39.676-.8-55.161 25.362 13.973 68.375 28.221 108.531 28.981a9.03 9.03 0 0 0 6.307-.505 13.3 13.3 0 0 0 7.147-5.109c.578-.571 1.167-1.181 1.769-1.846 5.921-6.544 8.913-17.122 10.441-25.163 2.167-11.375 20.534-75.51 19.892-98.672z" fill="#19a2be" transform="translate(112.708 -94.601)"/><path d="m58.771 344.145c-8.408.021-14.154-8.8-11.253-17.212 18.8-54.461 66.146-105.9 81.808-106.766a7.931 7.931 0 0 1 1.39.038 5.558 5.558 0 0 1 4.963 4.569c2.5 10.563-15.1 39.109-22.792 50.894-11.713 17.954-31.551 49.567-42.351 62.83a17.368 17.368 0 0 1 -11.765 5.646z" fill="#19a2be" transform="translate(62.999 -38.513)"/><path d="m84.444 245.906c12.831 17.435 28.671 10.762 24.307-6.955l-3.27-30.966-24.881.091 2.414 33.874a7.587 7.587 0 0 0 1.43 3.956z" fill="#ffa96e" transform="translate(147.021 -68.724)"/><path d="m108.719 238.172-27.9-24.884-.231-4.653 26.552-1.32 1.19 23.943z" fill="#ffa96e" fill-rule="evenodd" transform="translate(146.982 -70.388)"/><path d="m73.784 190.632c9.884-8.61 32.206-12.824 44.277-14.419a41.19 41.19 0 0 1 29.29 7.07c11.11 7.478 19.622 20.371 21.391 32.415 0 0-2.967 21.026 5.928 30.391 2.281 2.4 6.868 11.967.909 29.263-1.484 4.308-4.751 11.469-6.68 15.54-1.613 3.4-2.842 4.974-6.614 6.3-5.189 1.825-10.828 2.313-16.247 3-.609.077-.609.077-1.8.23-2.87.373-1.5.7-4.381.289-20.4 1.822-38.353-8.5-46.586-29.162l-24.683-48.2c-3.752-11.193-3.703-24.96 5.196-32.717z" fill="#ffa96e" transform="translate(111.352 -148.531)"/><path d="m91.454 206.535c5.015 7.8 4.695 16.543-.711 19.528s-13.855-.916-18.87-8.717-4.695-16.547.711-19.532 13.854.919 18.87 8.721z" fill="#ffa96e" transform="translate(116.516 -96.467)"/><path d="m80.373 201.484a6.663 6.663 0 0 0 -4.852-3.622c-2.459-.383-5.91.989-5.559 7.819s5.485 12.5 9.08 11.5c1.139-.317 1.689-2.006 1.909-4.169-2.232-.536-3.73-3.023-3.41-5.806a5.622 5.622 0 0 1 3-4.507c-.098-.755-.168-1.215-.168-1.215z" fill="#ffa96e" fill-rule="evenodd" transform="translate(120.551 -94.004)"/><path d="m96.521 269.782c2.522-1.752-5.83-6.259-5.656-9.323.672-11.943 7-19.232 2.734-30.405 9.672.439 10.891-11.793 12.705-21.3a46.407 46.407 0 0 0 29.883-4.026 16.9 16.9 0 0 0 17.257 8.853c2.208-.352 4.5-1.146 6.617-.418a10.842 10.842 0 0 1 3.455 2.41c4.479 3.981 11.438 10 12.413 12.528 11.542-5.207 7.216-23.753 1.438-28.406-11.218-9.024-15.164-2.528-20.092-1.745 2.069-4.542 3.782-14.283-11.964-22.872-31.077-16.944-22.4 1.835-37.057 2.114-3.943.073-8.07.317-11.448 2.344s-5.674 6.419-4.068 10.02a22.2 22.2 0 0 0 -17.675 7.808c-2.859 3.424-4.556 8.63-1.968 12.263-4.973 2.574-9.289 7.028-10.288 12.538s2.2 11.873 7.652 13.176a23.774 23.774 0 0 0 5.51 21.844c3.559 3.81 8.641 6.84 9.7 11.946" fill="#4d128c" transform="translate(102.397 -168)"/><path d="m78.882 219.7s21.708-6.2 41.351 0l-.759 19.159a11.129 11.129 0 0 1 -19.768 6.562z" fill="#ffa96e" transform="translate(142.758 -46.483)"/><path d="m53.98 265.78v-6.024h186.369v6.526z" fill="#8dd1e4" transform="translate(80.929 59.815)"/><path d="m190.022 330.738-103.648 1.787c-6.259.108-11.183-5.458-10.981-12.406l2.162-74.619c.192-6.663 5.3-12.005 11.4-11.953l101.045.881c5.761.049 10.431 5.3 10.448 11.758l.212 72.188c.02 6.719-4.734 12.263-10.638 12.364z" fill="#8dd1e4" transform="translate(134.079 -5.268)"/><path d="m186.464 328.288-98.943 1.7c-6 .1-10.724-5.235-10.539-11.9l1.985-72.06c.178-6.4 5.074-11.545 10.922-11.5l96.547.759c5.538.045 10.031 5.1 10.048 11.309l.2 69.806c.023 6.456-4.546 11.785-10.22 11.886z" fill="#e9dfec" transform="translate(138.027 -2.825)"/><path d="m117.176 257.668a12.47 12.47 0 1 1 -12.468-12.468 12.47 12.47 0 0 1 12.468 12.468z" fill="#f2f2f2" transform="translate(175.913 23.675)"/><path d="m89.93 267.109-29.249-5.653h41.261s-12.493 1.282-12.012 5.653z" fill="#19a2be" transform="translate(97.568 64.035)"/><path d="m85.322 261.279s-6.213 1.606-9.2 1.982-9.783-.832-9.783-.832-1.909 4.019 2.055 5.694 7.868-1.407 10.372.777c1.794 1.56 22.328 3.2 22.732-5.559.057-1.212-16.176-2.062-16.176-2.062z" fill="#ffa96e" transform="translate(110.479 63.595)"/><path d="m69.758 274.634s-1.139-12.879 2.372-13.642 5.534 12.19 4.089 14.067-5.329 3.764-6.461-.425z" fill="#ffa96e" transform="translate(119.666 62.803)"/><path d="m71.871 274.237s-2-12.8 1.71-13.6 6.649 12.068 5.127 14.057-5.638 3.98-6.837-.457z" fill="#ffa96e" transform="translate(124.013 61.911)"/><path d="m74.075 273.213s-2.208-11.525 1.139-12.249 6.412 10.859 5.033 12.653-5.085 3.594-6.172-.404z" fill="#ffa96e" transform="translate(129.05 62.733)"/><path d="m76.056 273.462s-2.347-12.047.686-12.695 6.144 11.441 4.9 13.068-4.608 3.249-5.586-.373z" fill="#ffa96e" transform="translate(133.589 62.261)"/></svg>